# xmcd
# 
# Track frame offsets:
#     150
#     17390
#     36418
#     61950
# 
# Disc length: 1131
# 
# Revision: 0
# Processed by: cddbd v1.5.2PL0 Copyright (c) Steve Scherf et al.
# Submitted via: BonkEnc v1.0.8
# 
DISCID=29046904
DTITLE=Final Empire - 1994
DYEAR=1994
DGENRE=Heavy Metal
TTITLE0=Time to leave
TTITLE1=The Day after
TTITLE2=She called herself death
TTITLE3=Children of the Dark
EXTD=
EXTT0=
EXTT1=
EXTT2=
EXTT3=
PLAYORDER=
